<?xml version="1.0" standalone="no"?>
 <!DOCTYPE svg PUBLIC "-//W3C//DTD SVG 1.1//EN" 
 "http://www.w3.org/Graphics/SVG/1.1/DTD/svg11.dtd"> 
<svg xmlns="http://www.w3.org/2000/svg" version="1.1" 
    width="41.9989cm" height="29.7002cm" viewBox="0 0 165350 116930 ">
<title>SVG Picture created as Hyperdrive!_Odd-F_SilkS.svg date 2015/07/01 11:58:16 </title>
  <desc>Picture generated by PCBNEW </desc>
<g style="fill:#000000; fill-opacity:1;stroke:#000000; stroke-opacity:1;
stroke-linecap:round; stroke-linejoin:round; "
 transform="translate(0 0) scale(1 1)">
</g>
<g style="fill:#000000; fill-opacity:0.0; 
stroke:#000000; stroke-width:39.3701; stroke-opacity:1; 
stroke-linecap:round; stroke-linejoin:round;">
<path d="M4000 4000
L161350 4000
L161350 112930
L4000 112930
L4000 4000
" />
<path d="M4700 4700
L160650 4700
L160650 112230
L4700 112230
L4700 4700
" />
<path d="M26470 4000
L26470 4700
" />
<path d="M15382 4552
L15097 4552
" />
<path d="M15240 4552
L15240 4052
L15192 4123
L15144 4171
L15097 4195
" />
<path d="M26470 112930
L26470 112230
" />
<path d="M15382 112782
L15097 112782
" />
<path d="M15240 112782
L15240 112282
L15192 112353
L15144 112401
L15097 112425
" />
<path d="M48940 4000
L48940 4700
" />
<path d="M37567 4100
L37590 4076
L37638 4052
L37757 4052
L37805 4076
L37829 4100
L37852 4147
L37852 4195
L37829 4266
L37543 4552
L37852 4552
" />
<path d="M48940 112930
L48940 112230
" />
<path d="M37567 112330
L37590 112306
L37638 112282
L37757 112282
L37805 112306
L37829 112330
L37852 112377
L37852 112425
L37829 112496
L37543 112782
L37852 112782
" />
<path d="M71410 4000
L71410 4700
" />
<path d="M60013 4052
L60322 4052
L60156 4242
L60227 4242
L60275 4266
L60299 4290
L60322 4338
L60322 4457
L60299 4504
L60275 4528
L60227 4552
L60084 4552
L60037 4528
L60013 4504
" />
<path d="M71410 112930
L71410 112230
" />
<path d="M60013 112282
L60322 112282
L60156 112472
L60227 112472
L60275 112496
L60299 112520
L60322 112568
L60322 112687
L60299 112734
L60275 112758
L60227 112782
L60084 112782
L60037 112758
L60013 112734
" />
<path d="M93880 4000
L93880 4700
" />
<path d="M82745 4219
L82745 4552
" />
<path d="M82626 4028
L82507 4385
L82816 4385
" />
<path d="M93880 112930
L93880 112230
" />
<path d="M82745 112449
L82745 112782
" />
<path d="M82626 112258
L82507 112615
L82816 112615
" />
<path d="M116350 4000
L116350 4700
" />
<path d="M105239 4052
L105000 4052
L104977 4290
L105000 4266
L105048 4242
L105167 4242
L105215 4266
L105239 4290
L105262 4338
L105262 4457
L105239 4504
L105215 4528
L105167 4552
L105048 4552
L105000 4528
L104977 4504
" />
<path d="M116350 112930
L116350 112230
" />
<path d="M105239 112282
L105000 112282
L104977 112520
L105000 112496
L105048 112472
L105167 112472
L105215 112496
L105239 112520
L105262 112568
L105262 112687
L105239 112734
L105215 112758
L105167 112782
L105048 112782
L105000 112758
L104977 112734
" />
<path d="M138820 4000
L138820 4700
" />
<path d="M127685 4052
L127590 4052
L127542 4076
L127518 4100
L127470 4171
L127447 4266
L127447 4457
L127470 4504
L127494 4528
L127542 4552
L127637 4552
L127685 4528
L127709 4504
L127732 4457
L127732 4338
L127709 4290
L127685 4266
L127637 4242
L127542 4242
L127494 4266
L127470 4290
L127447 4338
" />
<path d="M138820 112930
L138820 112230
" />
<path d="M127685 112282
L127590 112282
L127542 112306
L127518 112330
L127470 112401
L127447 112496
L127447 112687
L127470 112734
L127494 112758
L127542 112782
L127637 112782
L127685 112758
L127709 112734
L127732 112687
L127732 112568
L127709 112520
L127685 112496
L127637 112472
L127542 112472
L127494 112496
L127470 112520
L127447 112568
" />
<path d="M149893 4052
L150226 4052
L150012 4552
" />
<path d="M149893 112282
L150226 112282
L150012 112782
" />
<path d="M4000 25780
L4700 25780
" />
<path d="M4230 14949
L4469 14949
" />
<path d="M4183 15092
L4350 14592
L4516 15092
" />
<path d="M161350 25780
L160650 25780
" />
<path d="M160880 14949
L161119 14949
" />
<path d="M160833 15092
L161000 14592
L161166 15092
" />
<path d="M4000 47560
L4700 47560
" />
<path d="M4385 36610
L4457 36634
L4480 36658
L4504 36705
L4504 36777
L4480 36824
L4457 36848
L4409 36872
L4219 36872
L4219 36372
L4385 36372
L4433 36396
L4457 36420
L4480 36467
L4480 36515
L4457 36562
L4433 36586
L4385 36610
L4219 36610
" />
<path d="M161350 47560
L160650 47560
" />
<path d="M161035 36610
L161107 36634
L161130 36658
L161154 36705
L161154 36777
L161130 36824
L161107 36848
L161059 36872
L160869 36872
L160869 36372
L161035 36372
L161083 36396
L161107 36420
L161130 36467
L161130 36515
L161107 36562
L161083 36586
L161035 36610
L160869 36610
" />
<path d="M4000 69340
L4700 69340
" />
<path d="M4504 58604
L4480 58628
L4409 58652
L4361 58652
L4290 58628
L4242 58580
L4219 58533
L4195 58438
L4195 58366
L4219 58271
L4242 58223
L4290 58176
L4361 58152
L4409 58152
L4480 58176
L4504 58200
" />
<path d="M161350 69340
L160650 69340
" />
<path d="M161154 58604
L161130 58628
L161059 58652
L161011 58652
L160940 58628
L160892 58580
L160869 58533
L160845 58438
L160845 58366
L160869 58271
L160892 58223
L160940 58176
L161011 58152
L161059 58152
L161130 58176
L161154 58200
" />
<path d="M4000 91120
L4700 91120
" />
<path d="M4219 80432
L4219 79932
L4338 79932
L4409 79956
L4457 80003
L4480 80051
L4504 80146
L4504 80218
L4480 80313
L4457 80360
L4409 80408
L4338 80432
L4219 80432
" />
<path d="M161350 91120
L160650 91120
" />
<path d="M160869 80432
L160869 79932
L160988 79932
L161059 79956
L161107 80003
L161130 80051
L161154 80146
L161154 80218
L161130 80313
L161107 80360
L161059 80408
L160988 80432
L160869 80432
" />
<path d="M4242 101950
L4409 101950
" />
<path d="M4480 102212
L4242 102212
L4242 101712
L4480 101712
" />
<path d="M160892 101950
L161059 101950
" />
<path d="M161130 102212
L160892 102212
L160892 101712
L161130 101712
" />
<path d="M127800 110672
L127875 110072
L128017 110072
L128100 110101
L128150 110158
L128171 110215
L128185 110330
L128175 110415
L128132 110530
L128096 110587
L128032 110644
L127942 110672
L127800 110672
" />
<path d="M128657 110672
L128696 110358
L128675 110301
L128621 110272
L128507 110272
L128446 110301
" />
<path d="M128660 110644
L128600 110672
L128457 110672
L128403 110644
L128382 110587
L128389 110530
L128425 110472
L128485 110444
L128628 110444
L128689 110415
" />
<path d="M128907 110272
L129135 110272
" />
<path d="M129017 110072
L128953 110587
L128975 110644
L129028 110672
L129085 110672
" />
<path d="M129517 110644
L129457 110672
L129342 110672
L129289 110644
L129267 110587
L129296 110358
L129332 110301
L129392 110272
L129507 110272
L129560 110301
L129582 110358
L129575 110415
L129282 110472
" />
<path d="M129807 110615
L129832 110644
L129800 110672
L129775 110644
L129807 110615
L129800 110672
" />
<path d="M129846 110301
L129871 110330
L129839 110358
L129814 110330
L129846 110301
L129839 110358
" />
<path d="M130857 110672
L130514 110672
" />
<path d="M130685 110672
L130760 110072
L130692 110158
L130628 110215
L130567 110244
" />
<path d="M131621 110272
L131557 110787
L131521 110844
L131460 110872
L131432 110872
" />
<path d="M131646 110072
L131614 110101
L131639 110130
L131671 110101
L131646 110072
L131639 110130
" />
<path d="M132164 110272
L132114 110672
" />
<path d="M131907 110272
L131867 110587
L131889 110644
L131942 110672
L132028 110672
L132089 110644
L132121 110615
" />
<path d="M132485 110672
L132432 110644
L132410 110587
L132475 110072
" />
<path d="M133210 110130
L133242 110101
L133303 110072
L133446 110072
L133500 110101
L133525 110130
L133546 110187
L133539 110244
L133500 110330
L133114 110672
L133485 110672
" />
<path d="M133932 110072
L133989 110072
L134042 110101
L134067 110130
L134089 110187
L134103 110301
L134085 110444
L134042 110558
L134007 110615
L133975 110644
L133914 110672
L133857 110672
L133803 110644
L133778 110615
L133757 110558
L133742 110444
L133760 110301
L133803 110187
L133839 110130
L133871 110101
L133932 110072
" />
<path d="M134628 110672
L134285 110672
" />
<path d="M134457 110672
L134532 110072
L134464 110158
L134400 110215
L134339 110244
" />
<path d="M135246 110072
L134960 110072
L134896 110358
L134928 110330
L134989 110301
L135132 110301
L135185 110330
L135210 110358
L135232 110415
L135214 110558
L135178 110615
L135146 110644
L135085 110672
L134942 110672
L134889 110644
L134864 110615
" />
<path d="M119392 111872
L119392 111272
" />
<path d="M119735 111872
L119478 111530
" />
<path d="M119735 111272
L119392 111615
" />
<path d="M119992 111872
L119992 111472
" />
<path d="M119992 111272
L119964 111301
L119992 111330
L120021 111301
L119992 111272
L119992 111330
" />
<path d="M120621 111815
L120592 111844
L120507 111872
L120450 111872
L120364 111844
L120307 111787
L120278 111730
L120250 111615
L120250 111530
L120278 111415
L120307 111358
L120364 111301
L120450 111272
L120507 111272
L120592 111301
L120621 111330
" />
<path d="M121135 111872
L121135 111558
L121107 111501
L121050 111472
L120935 111472
L120878 111501
" />
<path d="M121135 111844
L121078 111872
L120935 111872
L120878 111844
L120850 111787
L120850 111730
L120878 111672
L120935 111644
L121078 111644
L121135 111615
" />
<path d="M121678 111872
L121678 111272
" />
<path d="M121678 111844
L121621 111872
L121507 111872
L121450 111844
L121421 111815
L121392 111758
L121392 111587
L121421 111530
L121450 111501
L121507 111472
L121621 111472
L121678 111501
" />
<path d="M122421 111558
L122621 111558
" />
<path d="M122707 111872
L122421 111872
L122421 111272
L122707 111272
" />
<path d="M122964 111815
L122992 111844
L122964 111872
L122935 111844
L122964 111815
L122964 111872
" />
<path d="M123249 111872
L123249 111272
L123392 111272
L123478 111301
L123535 111358
L123564 111415
L123592 111530
L123592 111615
L123564 111730
L123535 111787
L123478 111844
L123392 111872
L123249 111872
" />
<path d="M123849 111815
L123878 111844
L123849 111872
L123821 111844
L123849 111815
L123849 111872
" />
<path d="M124107 111701
L124392 111701
" />
<path d="M124049 111872
L124249 111272
L124449 111872
" />
<path d="M124649 111815
L124678 111844
L124649 111872
L124621 111844
L124649 111815
L124649 111872
" />
<path d="M152942 110672
L152778 110387
" />
<path d="M152600 110672
L152675 110072
L152903 110072
L152957 110101
L152982 110130
L153003 110187
L152992 110272
L152957 110330
L152925 110358
L152864 110387
L152635 110387
" />
<path d="M153432 110644
L153371 110672
L153257 110672
L153203 110644
L153182 110587
L153210 110358
L153246 110301
L153307 110272
L153421 110272
L153475 110301
L153496 110358
L153489 110415
L153196 110472
" />
<path d="M153707 110272
L153800 110672
L153992 110272
" />
<path d="M154178 110615
L154203 110644
L154171 110672
L154146 110644
L154178 110615
L154171 110672
" />
<path d="M154217 110301
L154242 110330
L154210 110358
L154185 110330
L154217 110301
L154210 110358
" />
<path d="M119364 110644
L119450 110672
L119592 110672
L119650 110644
L119678 110615
L119707 110558
L119707 110501
L119678 110444
L119650 110415
L119592 110387
L119478 110358
L119421 110330
L119392 110301
L119364 110244
L119364 110187
L119392 110130
L119421 110101
L119478 110072
L119621 110072
L119707 110101
" />
<path d="M119964 110672
L119964 110272
" />
<path d="M119964 110072
L119935 110101
L119964 110130
L119992 110101
L119964 110072
L119964 110130
" />
<path d="M120192 110272
L120507 110272
L120192 110672
L120507 110672
" />
<path d="M120964 110644
L120907 110672
L120792 110672
L120735 110644
L120707 110587
L120707 110358
L120735 110301
L120792 110272
L120907 110272
L120964 110301
L120992 110358
L120992 110415
L120707 110472
" />
<path d="M121250 110615
L121278 110644
L121250 110672
L121221 110644
L121250 110615
L121250 110672
" />
<path d="M121250 110301
L121278 110330
L121250 110358
L121221 110330
L121250 110301
L121250 110358
" />
<path d="M121964 110501
L122250 110501
" />
<path d="M121907 110672
L122107 110072
L122307 110672
" />
<path d="M122450 110072
L122821 110072
L122621 110301
L122707 110301
L122764 110330
L122792 110358
L122821 110415
L122821 110558
L122792 110615
L122764 110644
L122707 110672
L122535 110672
L122478 110644
L122450 110615
" />
<path d="M152592 111872
L152592 111272
" />
<path d="M153135 111872
L153135 111272
" />
<path d="M153135 111844
L153078 111872
L152964 111872
L152907 111844
L152878 111815
L152850 111758
L152850 111587
L152878 111530
L152907 111501
L152964 111472
L153078 111472
L153135 111501
" />
<path d="M153421 111815
L153450 111844
L153421 111872
L153392 111844
L153421 111815
L153421 111872
" />
<path d="M153421 111501
L153450 111530
L153421 111558
L153392 111530
L153421 111501
L153421 111558
" />
<path d="M154478 111872
L154135 111872
" />
<path d="M154307 111872
L154307 111272
L154249 111358
L154192 111415
L154135 111444
" />
<path d="M155164 111244
L154650 112015
" />
<path d="M155678 111872
L155335 111872
" />
<path d="M155507 111872
L155507 111272
L155449 111358
L155392 111415
L155335 111444
" />
<path d="M119389 108872
L119732 108872
" />
<path d="M119485 109472
L119560 108872
" />
<path d="M119857 109472
L119907 109072
" />
<path d="M119932 108872
L119900 108901
L119925 108930
L119957 108901
L119932 108872
L119925 108930
" />
<path d="M120107 109072
L120335 109072
" />
<path d="M120217 108872
L120153 109387
L120175 109444
L120228 109472
L120285 109472
" />
<path d="M120571 109472
L120517 109444
L120496 109387
L120560 108872
" />
<path d="M121032 109444
L120971 109472
L120857 109472
L120803 109444
L120782 109387
L120810 109158
L120846 109101
L120907 109072
L121021 109072
L121075 109101
L121096 109158
L121089 109215
L120796 109272
" />
<path d="M121321 109415
L121346 109444
L121314 109472
L121289 109444
L121321 109415
L121314 109472
" />
<path d="M121360 109101
L121385 109130
L121353 109158
L121328 109130
L121360 109101
L121353 109158
" />
<path d="M119592 106758
L119392 106758
" />
<path d="M119392 107072
L119392 106472
L119678 106472
" />
<path d="M119907 107072
L119907 106672
" />
<path d="M119907 106472
L119878 106501
L119907 106530
L119935 106501
L119907 106472
L119907 106530
" />
<path d="M120278 107072
L120221 107044
L120192 106987
L120192 106472
" />
<path d="M120735 107044
L120678 107072
L120564 107072
L120507 107044
L120478 106987
L120478 106758
L120507 106701
L120564 106672
L120678 106672
L120735 106701
L120764 106758
L120764 106815
L120478 106872
" />
<path d="M121021 107015
L121050 107044
L121021 107072
L120992 107044
L121021 107015
L121021 107072
" />
<path d="M121021 106701
L121050 106730
L121021 106758
L120992 106730
L121021 106701
L121021 106758
" />
<path d="M121764 107072
L121764 106472
" />
<path d="M121764 106758
L122107 106758
" />
<path d="M122107 107072
L122107 106472
" />
<path d="M122335 106672
L122478 107072
" />
<path d="M122621 106672
L122478 107072
L122421 107215
L122392 107244
L122335 107272
" />
<path d="M122850 106672
L122850 107272
" />
<path d="M122850 106701
L122907 106672
L123021 106672
L123078 106701
L123107 106730
L123135 106787
L123135 106958
L123107 107015
L123078 107044
L123021 107072
L122907 107072
L122850 107044
" />
<path d="M123621 107044
L123564 107072
L123450 107072
L123392 107044
L123364 106987
L123364 106758
L123392 106701
L123450 106672
L123564 106672
L123621 106701
L123650 106758
L123650 106815
L123364 106872
" />
<path d="M123907 107072
L123907 106672
" />
<path d="M123907 106787
L123935 106730
L123964 106701
L124021 106672
L124078 106672
" />
<path d="M124535 107072
L124535 106472
" />
<path d="M124535 107044
L124478 107072
L124364 107072
L124307 107044
L124278 107015
L124250 106958
L124250 106787
L124278 106730
L124307 106701
L124364 106672
L124478 106672
L124535 106701
" />
<path d="M124821 107072
L124821 106672
" />
<path d="M124821 106787
L124850 106730
L124878 106701
L124935 106672
L124992 106672
" />
<path d="M125192 107072
L125192 106672
" />
<path d="M125192 106472
L125164 106501
L125192 106530
L125221 106501
L125192 106472
L125192 106530
" />
<path d="M125421 106672
L125564 107072
L125707 106672
" />
<path d="M126164 107044
L126107 107072
L125992 107072
L125935 107044
L125907 106987
L125907 106758
L125935 106701
L125992 106672
L126107 106672
L126164 106701
L126192 106758
L126192 106815
L125907 106872
" />
<path d="M126450 107015
L126478 107044
L126450 107072
L126421 107044
L126450 107015
L126450 107072
" />
<path d="M126450 106844
L126421 106501
L126450 106472
L126478 106501
L126450 106844
L126450 106472
" />
<path d="M126592 107130
L127050 107130
" />
<path d="M127307 106472
L127421 106472
L127478 106501
L127535 106558
L127564 106672
L127564 106872
L127535 106987
L127478 107044
L127421 107072
L127307 107072
L127250 107044
L127192 106987
L127164 106872
L127164 106672
L127192 106558
L127250 106501
L127307 106472
" />
<path d="M128078 107072
L128078 106472
" />
<path d="M128078 107044
L128021 107072
L127907 107072
L127850 107044
L127821 107015
L127792 106958
L127792 106787
L127821 106730
L127850 106701
L127907 106672
L128021 106672
L128078 106701
" />
<path d="M128621 107072
L128621 106472
" />
<path d="M128621 107044
L128564 107072
L128450 107072
L128392 107044
L128364 107015
L128335 106958
L128335 106787
L128364 106730
L128392 106701
L128450 106672
L128564 106672
L128621 106701
" />
<path d="M128907 107015
L128935 107044
L128907 107072
L128878 107044
L128907 107015
L128907 107072
" />
<path d="M129192 107072
L129192 106472
" />
<path d="M129250 106844
L129421 107072
" />
<path d="M129421 106672
L129192 106901
" />
<path d="M129678 107072
L129678 106672
" />
<path d="M129678 106472
L129650 106501
L129678 106530
L129707 106501
L129678 106472
L129678 106530
" />
<path d="M130221 107044
L130164 107072
L130049 107072
L129992 107044
L129964 107015
L129935 106958
L129935 106787
L129964 106730
L129992 106701
L130049 106672
L130164 106672
L130221 106701
" />
<path d="M130735 107072
L130735 106758
L130707 106701
L130650 106672
L130535 106672
L130478 106701
" />
<path d="M130735 107044
L130678 107072
L130535 107072
L130478 107044
L130450 106987
L130450 106930
L130478 106872
L130535 106844
L130678 106844
L130735 106815
" />
<path d="M131278 107072
L131278 106472
" />
<path d="M131278 107044
L131221 107072
L131107 107072
L131050 107044
L131021 107015
L130992 106958
L130992 106787
L131021 106730
L131050 106701
L131107 106672
L131221 106672
L131278 106701
" />
<path d="M131421 107130
L131878 107130
" />
<path d="M132021 106672
L132021 107272
" />
<path d="M132021 106701
L132078 106672
L132192 106672
L132250 106701
L132278 106730
L132307 106787
L132307 106958
L132278 107015
L132250 107044
L132192 107072
L132078 107072
L132021 107044
" />
<path d="M132821 107044
L132764 107072
L132649 107072
L132592 107044
L132564 107015
L132535 106958
L132535 106787
L132564 106730
L132592 106701
L132649 106672
L132764 106672
L132821 106701
" />
<path d="M133078 107072
L133078 106472
" />
<path d="M133078 106701
L133135 106672
L133250 106672
L133307 106701
L133335 106730
L133364 106787
L133364 106958
L133335 107015
L133307 107044
L133250 107072
L133135 107072
L133078 107044
" />
<path d="M119364 108244
L119450 108272
L119592 108272
L119650 108244
L119678 108215
L119707 108158
L119707 108101
L119678 108044
L119650 108015
L119592 107987
L119478 107958
L119421 107930
L119392 107901
L119364 107844
L119364 107787
L119392 107730
L119421 107701
L119478 107672
L119621 107672
L119707 107701
" />
<path d="M119964 108272
L119964 107672
" />
<path d="M120221 108272
L120221 107958
L120192 107901
L120135 107872
L120050 107872
L119992 107901
L119964 107930
" />
<path d="M120735 108244
L120678 108272
L120564 108272
L120507 108244
L120478 108187
L120478 107958
L120507 107901
L120564 107872
L120678 107872
L120735 107901
L120764 107958
L120764 108015
L120478 108072
" />
<path d="M121250 108244
L121192 108272
L121078 108272
L121021 108244
L120992 108187
L120992 107958
L121021 107901
L121078 107872
L121192 107872
L121250 107901
L121278 107958
L121278 108015
L120992 108072
" />
<path d="M121450 107872
L121678 107872
" />
<path d="M121535 107672
L121535 108187
L121564 108244
L121621 108272
L121678 108272
" />
<path d="M121878 108215
L121907 108244
L121878 108272
L121850 108244
L121878 108215
L121878 108272
" />
<path d="M121878 107901
L121907 107930
L121878 107958
L121850 107930
L121878 107901
L121878 107958
" />
<path d="M118650 106230
L118650 112230
" />
<path d="M118650 106230
L160650 106230
" />
<path d="M118650 106230
L160650 106230
" />
<path d="M118650 108630
L160650 108630
" />
<path d="M151850 109830
L151850 112230
" />
<path d="M118650 111030
L160650 111030
" />
<path d="M118650 109830
L160650 109830
" />
<path d="M125250 109830
L125250 111030
" />
</g>
<g style="fill:#009F9F; fill-opacity:0.0; 
stroke:#009F9F; stroke-width:59.0551; stroke-opacity:1; 
stroke-linecap:round; stroke-linejoin:round;">
<path d="M88833 56143
L88833 56462
L88852 56499
L88871 56518
L88908 56537
L88983 56537
L89021 56518
L89040 56499
L89058 56462
L89058 56143
" />
<path d="M89452 56537
L89227 56537
" />
<path d="M89340 56537
L89340 56143
L89302 56199
L89265 56237
L89227 56256
" />
</g>
<g style="fill:#009F9F; fill-opacity:0.0; 
stroke:#009F9F; stroke-width:60; stroke-opacity:1; 
stroke-linecap:round; stroke-linejoin:round;">
<path d="M104214 67430
L104214 67030
" />
<path d="M104442 67430
L104271 67201
" />
<path d="M104442 67030
L104214 67258
" />
<path d="M104804 67030
L104614 67030
L104595 67220
L104614 67201
L104652 67182
L104747 67182
L104785 67201
L104804 67220
L104823 67258
L104823 67353
L104804 67391
L104785 67410
L104747 67430
L104652 67430
L104614 67410
L104595 67391
" />
<path d="M90516 55019
L90116 55019
" />
<path d="M90516 54791
L90287 54962
" />
<path d="M90116 54791
L90344 55019
" />
<path d="M90516 54410
L90516 54638
" />
<path d="M90516 54524
L90116 54524
L90173 54562
L90211 54600
L90230 54638
" />
<path d="M98237 68327
L98237 67927
" />
<path d="M98466 68327
L98294 68099
" />
<path d="M98466 67927
L98237 68156
" />
<path d="M98809 67927
L98733 67927
L98694 67946
L98675 67965
L98637 68022
L98618 68099
L98618 68251
L98637 68289
L98656 68308
L98694 68327
L98771 68327
L98809 68308
L98828 68289
L98847 68251
L98847 68156
L98828 68118
L98809 68099
L98771 68080
L98694 68080
L98656 68099
L98637 68118
L98618 68156
" />
<path d="M79005 52638
L79005 52238
" />
<path d="M79234 52638
L79062 52410
" />
<path d="M79234 52238
L79005 52467
" />
<path d="M79576 52372
L79576 52638
" />
<path d="M79481 52219
L79386 52505
L79634 52505
" />
<path d="M77265 61367
L77265 60967
" />
<path d="M77493 61367
L77322 61138
" />
<path d="M77493 60967
L77265 61195
" />
<path d="M77627 60967
L77874 60967
L77741 61119
L77798 61119
L77836 61138
L77855 61157
L77874 61195
L77874 61290
L77855 61328
L77836 61347
L77798 61367
L77684 61367
L77646 61347
L77627 61328
" />
<path d="M77383 56611
L77383 56211
" />
<path d="M77612 56611
L77440 56382
" />
<path d="M77612 56211
L77383 56439
" />
<path d="M77764 56249
L77783 56230
L77821 56211
L77916 56211
L77954 56230
L77973 56249
L77993 56287
L77993 56325
L77973 56382
L77745 56611
L77993 56611
" />
</g>
<g style="fill:#009F9F; fill-opacity:0.0; 
stroke:#009F9F; stroke-width:59.0551; stroke-opacity:1; 
stroke-linecap:round; stroke-linejoin:round;">
<path d="M83912 60868
L83912 61186
L83931 61224
L83950 61242
L83987 61261
L84062 61261
L84100 61242
L84118 61224
L84137 61186
L84137 60868
" />
<path d="M84287 60868
L84531 60868
L84400 61017
L84456 61017
L84493 61036
L84512 61055
L84531 61092
L84531 61186
L84512 61224
L84493 61242
L84456 61261
L84343 61261
L84306 61242
L84287 61224
" />
<path d="M81623 61220
L81586 61201
L81548 61164
L81492 61107
L81454 61089
L81417 61089
" />
<path d="M81436 61182
L81398 61164
L81361 61126
L81342 61051
L81342 60920
L81361 60845
L81398 60808
L81436 60789
L81511 60789
L81548 60808
L81586 60845
L81604 60920
L81604 61051
L81586 61126
L81548 61164
L81511 61182
L81436 61182
" />
<path d="M81998 61182
L81867 60995
" />
<path d="M81773 61182
L81773 60789
L81923 60789
L81961 60808
L81979 60826
L81998 60864
L81998 60920
L81979 60958
L81961 60976
L81923 60995
L81773 60995
" />
<path d="M82167 60976
L82298 60976
" />
<path d="M82354 61182
L82167 61182
L82167 60789
L82354 60789
" />
<path d="M82729 61182
L82504 61182
" />
<path d="M82617 61182
L82617 60789
L82579 60845
L82542 60883
L82504 60901
" />
<path d="M83104 61182
L82879 61182
" />
<path d="M82992 61182
L82992 60789
L82954 60845
L82917 60883
L82879 60901
" />
<path d="M83479 61182
L83254 61182
" />
<path d="M83367 61182
L83367 60789
L83329 60845
L83292 60883
L83254 60901
" />
<path d="M83610 60789
L83854 60789
L83723 60939
L83779 60939
L83817 60958
L83835 60976
L83854 61014
L83854 61107
L83835 61145
L83817 61164
L83779 61182
L83667 61182
L83629 61164
L83610 61145
" />
<path d="M84188 56379
L84188 56698
L84206 56736
L84225 56754
L84263 56773
L84338 56773
L84375 56754
L84394 56736
L84413 56698
L84413 56379
" />
<path d="M84581 56417
L84600 56398
L84638 56379
L84731 56379
L84769 56398
L84788 56417
L84806 56454
L84806 56492
L84788 56548
L84563 56773
L84806 56773
" />
<path d="M81899 56732
L81861 56713
L81824 56676
L81767 56619
L81730 56601
L81692 56601
" />
<path d="M81711 56694
L81674 56676
L81636 56638
L81617 56563
L81617 56432
L81636 56357
L81674 56319
L81711 56301
L81786 56301
L81824 56319
L81861 56357
L81880 56432
L81880 56563
L81861 56638
L81824 56676
L81786 56694
L81711 56694
" />
<path d="M82274 56694
L82142 56507
" />
<path d="M82049 56694
L82049 56301
L82199 56301
L82236 56319
L82255 56338
L82274 56376
L82274 56432
L82255 56469
L82236 56488
L82199 56507
L82049 56507
" />
<path d="M82442 56488
L82574 56488
" />
<path d="M82630 56694
L82442 56694
L82442 56301
L82630 56301
" />
<path d="M83005 56694
L82780 56694
" />
<path d="M82892 56694
L82892 56301
L82855 56357
L82817 56394
L82780 56413
" />
<path d="M83380 56694
L83155 56694
" />
<path d="M83267 56694
L83267 56301
L83230 56357
L83192 56394
L83155 56413
" />
<path d="M83755 56694
L83530 56694
" />
<path d="M83642 56694
L83642 56301
L83605 56357
L83567 56394
L83530 56413
" />
<path d="M83886 56301
L84130 56301
L83998 56451
L84055 56451
L84092 56469
L84111 56488
L84130 56526
L84130 56619
L84111 56657
L84092 56676
L84055 56694
L83942 56694
L83905 56676
L83886 56657
" />
<path d="M83952 52403
L83952 52722
L83970 52759
L83989 52778
L84026 52797
L84101 52797
L84139 52778
L84158 52759
L84176 52722
L84176 52403
" />
<path d="M84533 52534
L84533 52797
" />
<path d="M84439 52384
L84345 52665
L84589 52665
" />
<path d="M81662 52755
L81625 52737
L81587 52699
L81531 52643
L81494 52624
L81456 52624
" />
<path d="M81475 52718
L81437 52699
L81400 52662
L81381 52587
L81381 52455
L81400 52380
L81437 52343
L81475 52324
L81550 52324
L81587 52343
L81625 52380
L81644 52455
L81644 52587
L81625 52662
L81587 52699
L81550 52718
L81475 52718
" />
<path d="M82037 52718
L81906 52530
" />
<path d="M81812 52718
L81812 52324
L81962 52324
L82000 52343
L82019 52362
L82037 52399
L82037 52455
L82019 52493
L82000 52512
L81962 52530
L81812 52530
" />
<path d="M82206 52512
L82337 52512
" />
<path d="M82394 52718
L82206 52718
L82206 52324
L82394 52324
" />
<path d="M82769 52718
L82544 52718
" />
<path d="M82656 52718
L82656 52324
L82619 52380
L82581 52418
L82544 52437
" />
<path d="M83143 52718
L82919 52718
" />
<path d="M83031 52718
L83031 52324
L82994 52380
L82956 52418
L82919 52437
" />
<path d="M83518 52718
L83293 52718
" />
<path d="M83406 52718
L83406 52324
L83368 52380
L83331 52418
L83293 52437
" />
<path d="M83650 52324
L83893 52324
L83762 52474
L83818 52474
L83856 52493
L83875 52512
L83893 52549
L83893 52643
L83875 52680
L83856 52699
L83818 52718
L83706 52718
L83668 52699
L83650 52680
" />
<path d="M104700 63466
L104700 63785
L104718 63822
L104737 63841
L104775 63860
L104850 63860
L104887 63841
L104906 63822
L104925 63785
L104925 63466
" />
<path d="M105299 63466
L105112 63466
L105093 63653
L105112 63635
L105149 63616
L105243 63616
L105281 63635
L105299 63653
L105318 63691
L105318 63785
L105299 63822
L105281 63841
L105243 63860
L105149 63860
L105112 63841
L105093 63822
" />
<path d="M102410 63818
L102373 63800
L102335 63762
L102279 63706
L102242 63687
L102204 63687
" />
<path d="M102223 63781
L102185 63762
L102148 63725
L102129 63650
L102129 63518
L102148 63443
L102185 63406
L102223 63387
L102298 63387
L102335 63406
L102373 63443
L102392 63518
L102392 63650
L102373 63725
L102335 63762
L102298 63781
L102223 63781
" />
<path d="M102785 63781
L102654 63593
" />
<path d="M102560 63781
L102560 63387
L102710 63387
L102748 63406
L102767 63425
L102785 63462
L102785 63518
L102767 63556
L102748 63575
L102710 63593
L102560 63593
" />
<path d="M102954 63575
L103085 63575
" />
<path d="M103142 63781
L102954 63781
L102954 63387
L103142 63387
" />
<path d="M103517 63781
L103292 63781
" />
<path d="M103404 63781
L103404 63387
L103367 63443
L103329 63481
L103292 63500
" />
<path d="M103892 63781
L103667 63781
" />
<path d="M103779 63781
L103779 63387
L103742 63443
L103704 63481
L103667 63500
" />
<path d="M104266 63781
L104041 63781
" />
<path d="M104154 63781
L104154 63387
L104116 63443
L104079 63481
L104041 63500
" />
<path d="M104398 63387
L104641 63387
L104510 63537
L104566 63537
L104604 63556
L104623 63575
L104641 63612
L104641 63706
L104623 63743
L104604 63762
L104566 63781
L104454 63781
L104416 63762
L104398 63743
" />
<path d="M95329 66970
L95329 67289
L95348 67326
L95367 67345
L95404 67364
L95479 67364
L95517 67345
L95536 67326
L95554 67289
L95554 66970
" />
<path d="M95911 66970
L95836 66970
L95798 66989
L95779 67007
L95742 67064
L95723 67139
L95723 67289
L95742 67326
L95761 67345
L95798 67364
L95873 67364
L95911 67345
L95929 67326
L95948 67289
L95948 67195
L95929 67157
L95911 67139
L95873 67120
L95798 67120
L95761 67139
L95742 67157
L95723 67195
" />
<path d="M93040 67322
L93003 67304
L92965 67266
L92909 67210
L92872 67191
L92834 67191
" />
<path d="M92853 67285
L92815 67266
L92778 67229
L92759 67154
L92759 67022
L92778 66947
L92815 66910
L92853 66891
L92928 66891
L92965 66910
L93003 66947
L93022 67022
L93022 67154
L93003 67229
L92965 67266
L92928 67285
L92853 67285
" />
<path d="M93415 67285
L93284 67097
" />
<path d="M93190 67285
L93190 66891
L93340 66891
L93378 66910
L93397 66929
L93415 66966
L93415 67022
L93397 67060
L93378 67079
L93340 67097
L93190 67097
" />
<path d="M93584 67079
L93715 67079
" />
<path d="M93772 67285
L93584 67285
L93584 66891
L93772 66891
" />
<path d="M94146 67285
L93922 67285
" />
<path d="M94034 67285
L94034 66891
L93997 66947
L93959 66985
L93922 67004
" />
<path d="M94521 67285
L94296 67285
" />
<path d="M94409 67285
L94409 66891
L94371 66947
L94334 66985
L94296 67004
" />
<path d="M94896 67285
L94671 67285
" />
<path d="M94784 67285
L94784 66891
L94746 66947
L94709 66985
L94671 67004
" />
<path d="M95028 66891
L95271 66891
L95140 67041
L95196 67041
L95234 67060
L95253 67079
L95271 67116
L95271 67210
L95253 67247
L95234 67266
L95196 67285
L95084 67285
L95046 67266
L95028 67247
" />
<path d="M84009 63761
L83877 63574
" />
<path d="M83784 63761
L83784 63368
L83934 63368
L83971 63386
L83990 63405
L84009 63443
L84009 63499
L83990 63536
L83971 63555
L83934 63574
L83784 63574
" />
<path d="M84365 63368
L84177 63368
L84159 63555
L84177 63536
L84215 63517
L84309 63517
L84346 63536
L84365 63555
L84384 63592
L84384 63686
L84365 63724
L84346 63742
L84309 63761
L84215 63761
L84177 63742
L84159 63724
" />
</g>
<g style="fill:#009F9F; fill-opacity:0.0; 
stroke:#009F9F; stroke-width:16; stroke-opacity:1; 
stroke-linecap:round; stroke-linejoin:round;">
<path d="M84356 64598
L84311 64598
" />
<path d="M84334 64598
L84334 64519
L84326 64531
L84319 64538
L84311 64542
" />
<path d="M84424 64519
L84409 64519
L84401 64523
L84398 64527
L84390 64538
L84386 64553
L84386 64583
L84390 64591
L84394 64595
L84401 64598
L84416 64598
L84424 64595
L84428 64591
L84432 64583
L84432 64565
L84428 64557
L84424 64553
L84416 64550
L84401 64550
L84394 64553
L84390 64557
L84386 64565
" />
<path d="M84480 64519
L84488 64519
L84495 64523
L84499 64527
L84503 64534
L84507 64550
L84507 64568
L84503 64583
L84499 64591
L84495 64595
L84488 64598
L84480 64598
L84473 64595
L84469 64591
L84465 64583
L84462 64568
L84462 64550
L84465 64534
L84469 64527
L84473 64523
L84480 64519
" />
</g>
<g style="fill:#009F9F; fill-opacity:0.0; 
stroke:#009F9F; stroke-width:59.0551; stroke-opacity:1; 
stroke-linecap:round; stroke-linejoin:round;">
<path d="M80150 63131
L80019 62944
" />
<path d="M79925 63131
L79925 62738
L80075 62738
L80113 62756
L80132 62775
L80150 62813
L80150 62869
L80132 62906
L80113 62925
L80075 62944
L79925 62944
" />
<path d="M80488 62738
L80413 62738
L80375 62756
L80357 62775
L80319 62831
L80300 62906
L80300 63056
L80319 63094
L80338 63113
L80375 63131
L80450 63131
L80488 63113
L80507 63094
L80525 63056
L80525 62963
L80507 62925
L80488 62906
L80450 62888
L80375 62888
L80338 62906
L80319 62925
L80300 62963
" />
</g>
<g style="fill:#009F9F; fill-opacity:0.0; 
stroke:#009F9F; stroke-width:16; stroke-opacity:1; 
stroke-linecap:round; stroke-linejoin:round;">
<path d="M80496 63968
L80451 63968
" />
<path d="M80474 63968
L80474 63889
L80466 63901
L80459 63908
L80451 63912
" />
<path d="M80545 63889
L80553 63889
L80560 63893
L80564 63897
L80568 63905
L80571 63920
L80571 63938
L80568 63953
L80564 63961
L80560 63965
L80553 63968
L80545 63968
L80538 63965
L80534 63961
L80530 63953
L80526 63938
L80526 63920
L80530 63905
L80534 63897
L80538 63893
L80545 63889
" />
<path d="M80605 63968
L80605 63889
" />
<path d="M80650 63968
L80617 63923
" />
<path d="M80650 63889
L80605 63935
" />
</g>
<g style="fill:#009F9F; fill-opacity:0.0; 
stroke:#009F9F; stroke-width:59.0551; stroke-opacity:1; 
stroke-linecap:round; stroke-linejoin:round;">
<path d="M79796 58486
L79665 58298
" />
<path d="M79571 58486
L79571 58092
L79721 58092
L79759 58111
L79777 58129
L79796 58167
L79796 58223
L79777 58261
L79759 58279
L79721 58298
L79571 58298
" />
<path d="M79927 58092
L80171 58092
L80040 58242
L80096 58242
L80134 58261
L80152 58279
L80171 58317
L80171 58411
L80152 58448
L80134 58467
L80096 58486
L79984 58486
L79946 58467
L79927 58448
" />
</g>
<g style="fill:#009F9F; fill-opacity:0.0; 
stroke:#009F9F; stroke-width:16; stroke-opacity:1; 
stroke-linecap:round; stroke-linejoin:round;">
<path d="M80144 59323
L80099 59323
" />
<path d="M80121 59323
L80121 59244
L80114 59255
L80106 59263
L80099 59266
" />
<path d="M80211 59244
L80196 59244
L80189 59248
L80185 59251
L80178 59263
L80174 59278
L80174 59308
L80178 59315
L80181 59319
L80189 59323
L80204 59323
L80211 59319
L80215 59315
L80219 59308
L80219 59289
L80215 59281
L80211 59278
L80204 59274
L80189 59274
L80181 59278
L80178 59281
L80174 59289
" />
<path d="M80268 59244
L80275 59244
L80283 59248
L80287 59251
L80290 59259
L80294 59274
L80294 59293
L80290 59308
L80287 59315
L80283 59319
L80275 59323
L80268 59323
L80260 59319
L80257 59315
L80253 59308
L80249 59293
L80249 59274
L80253 59259
L80257 59251
L80260 59248
L80268 59244
" />
</g>
<g style="fill:#009F9F; fill-opacity:0.0; 
stroke:#009F9F; stroke-width:59.0551; stroke-opacity:1; 
stroke-linecap:round; stroke-linejoin:round;">
<path d="M80820 56596
L80688 56408
" />
<path d="M80595 56596
L80595 56202
L80745 56202
L80782 56221
L80801 56240
L80820 56277
L80820 56333
L80801 56371
L80782 56390
L80745 56408
L80595 56408
" />
<path d="M81157 56333
L81157 56596
" />
<path d="M81063 56183
L80970 56465
L81213 56465
" />
</g>
<g style="fill:#009F9F; fill-opacity:0.0; 
stroke:#009F9F; stroke-width:16; stroke-opacity:1; 
stroke-linecap:round; stroke-linejoin:round;">
<path d="M81165 57433
L81120 57433
" />
<path d="M81143 57433
L81143 57354
L81135 57365
L81128 57373
L81120 57377
" />
<path d="M81214 57354
L81222 57354
L81229 57358
L81233 57362
L81237 57369
L81241 57384
L81241 57403
L81237 57418
L81233 57426
L81229 57429
L81222 57433
L81214 57433
L81207 57429
L81203 57426
L81199 57418
L81196 57403
L81196 57384
L81199 57369
L81203 57362
L81207 57358
L81214 57354
" />
<path d="M81275 57433
L81275 57354
" />
<path d="M81320 57433
L81286 57388
" />
<path d="M81320 57354
L81275 57399
" />
</g>
<g style="fill:#009F9F; fill-opacity:0.0; 
stroke:#009F9F; stroke-width:59.0551; stroke-opacity:1; 
stroke-linecap:round; stroke-linejoin:round;">
<path d="M81607 50769
L81476 50582
" />
<path d="M81382 50769
L81382 50375
L81532 50375
L81570 50394
L81588 50413
L81607 50450
L81607 50507
L81588 50544
L81570 50563
L81532 50582
L81382 50582
" />
<path d="M81738 50375
L82001 50375
L81832 50769
" />
</g>
<g style="fill:#009F9F; fill-opacity:0.0; 
stroke:#009F9F; stroke-width:16; stroke-opacity:1; 
stroke-linecap:round; stroke-linejoin:round;">
<path d="M81955 51606
L81910 51606
" />
<path d="M81932 51606
L81932 51527
L81925 51539
L81917 51546
L81910 51550
" />
<path d="M82022 51527
L82007 51527
L82000 51531
L81996 51535
L81989 51546
L81985 51561
L81985 51591
L81989 51599
L81992 51603
L82000 51606
L82015 51606
L82022 51603
L82026 51599
L82030 51591
L82030 51572
L82026 51565
L82022 51561
L82015 51557
L82000 51557
L81992 51561
L81989 51565
L81985 51572
" />
<path d="M82079 51527
L82086 51527
L82094 51531
L82098 51535
L82101 51542
L82105 51557
L82105 51576
L82101 51591
L82098 51599
L82094 51603
L82086 51606
L82079 51606
L82071 51603
L82068 51599
L82064 51591
L82060 51576
L82060 51557
L82064 51542
L82068 51535
L82071 51531
L82079 51527
" />
</g>
<g style="fill:#009F9F; fill-opacity:0.0; 
stroke:#009F9F; stroke-width:59.0551; stroke-opacity:1; 
stroke-linecap:round; stroke-linejoin:round;">
<path d="M83261 50887
L83129 50700
" />
<path d="M83036 50887
L83036 50494
L83186 50494
L83223 50512
L83242 50531
L83261 50568
L83261 50625
L83242 50662
L83223 50681
L83186 50700
L83036 50700
" />
<path d="M83486 50662
L83448 50643
L83429 50625
L83411 50587
L83411 50568
L83429 50531
L83448 50512
L83486 50494
L83561 50494
L83598 50512
L83617 50531
L83636 50568
L83636 50587
L83617 50625
L83598 50643
L83561 50662
L83486 50662
L83448 50681
L83429 50700
L83411 50737
L83411 50812
L83429 50850
L83448 50868
L83486 50887
L83561 50887
L83598 50868
L83617 50850
L83636 50812
L83636 50737
L83617 50700
L83598 50681
L83561 50662
" />
</g>
<g style="fill:#009F9F; fill-opacity:0.0; 
stroke:#009F9F; stroke-width:16; stroke-opacity:1; 
stroke-linecap:round; stroke-linejoin:round;">
<path d="M83606 51724
L83561 51724
" />
<path d="M83584 51724
L83584 51645
L83576 51657
L83569 51664
L83561 51668
" />
<path d="M83655 51645
L83663 51645
L83670 51649
L83674 51653
L83678 51660
L83682 51675
L83682 51694
L83678 51709
L83674 51717
L83670 51721
L83663 51724
L83655 51724
L83648 51721
L83644 51717
L83640 51709
L83636 51694
L83636 51675
L83640 51660
L83644 51653
L83648 51649
L83655 51645
" />
<path d="M83715 51724
L83715 51645
" />
<path d="M83761 51724
L83727 51679
" />
<path d="M83761 51645
L83715 51691
" />
</g>
<g style="fill:#009F9F; fill-opacity:0.0; 
stroke:#009F9F; stroke-width:59.0551; stroke-opacity:1; 
stroke-linecap:round; stroke-linejoin:round;">
<path d="M101843 66438
L101712 66251
" />
<path d="M101618 66438
L101618 66045
L101768 66045
L101806 66063
L101825 66082
L101843 66120
L101843 66176
L101825 66213
L101806 66232
L101768 66251
L101618 66251
" />
<path d="M102031 66438
L102106 66438
L102143 66420
L102162 66401
L102200 66345
L102218 66270
L102218 66120
L102200 66082
L102181 66063
L102143 66045
L102068 66045
L102031 66063
L102012 66082
L101993 66120
L101993 66213
L102012 66251
L102031 66270
L102068 66288
L102143 66288
L102181 66270
L102200 66251
L102218 66213
" />
</g>
<g style="fill:#009F9F; fill-opacity:0.0; 
stroke:#009F9F; stroke-width:16; stroke-opacity:1; 
stroke-linecap:round; stroke-linejoin:round;">
<path d="M102191 67276
L102146 67276
" />
<path d="M102168 67276
L102168 67197
L102161 67208
L102153 67215
L102146 67219
" />
<path d="M102259 67197
L102244 67197
L102236 67200
L102232 67204
L102225 67215
L102221 67230
L102221 67261
L102225 67268
L102229 67272
L102236 67276
L102251 67276
L102259 67272
L102262 67268
L102266 67261
L102266 67242
L102262 67234
L102259 67230
L102251 67227
L102236 67227
L102229 67230
L102225 67234
L102221 67242
" />
<path d="M102315 67197
L102323 67197
L102330 67200
L102334 67204
L102338 67212
L102341 67227
L102341 67245
L102338 67261
L102334 67268
L102330 67272
L102323 67276
L102315 67276
L102308 67272
L102304 67268
L102300 67261
L102296 67245
L102296 67227
L102300 67212
L102304 67204
L102308 67200
L102315 67197
" />
</g>
<g style="fill:#009F9F; fill-opacity:0.0; 
stroke:#009F9F; stroke-width:59.0551; stroke-opacity:1; 
stroke-linecap:round; stroke-linejoin:round;">
<path d="M101065 64745
L100934 64558
" />
<path d="M100840 64745
L100840 64352
L100990 64352
L101028 64371
L101047 64389
L101065 64427
L101065 64483
L101047 64520
L101028 64539
L100990 64558
L100840 64558
" />
<path d="M101440 64745
L101215 64745
" />
<path d="M101328 64745
L101328 64352
L101290 64408
L101253 64446
L101215 64464
" />
<path d="M101684 64352
L101721 64352
L101759 64371
L101778 64389
L101796 64427
L101815 64502
L101815 64595
L101796 64670
L101778 64708
L101759 64727
L101721 64745
L101684 64745
L101646 64727
L101628 64708
L101609 64670
L101590 64595
L101590 64502
L101609 64427
L101628 64389
L101646 64371
L101684 64352
" />
</g>
<g style="fill:#009F9F; fill-opacity:0.0; 
stroke:#009F9F; stroke-width:16; stroke-opacity:1; 
stroke-linecap:round; stroke-linejoin:round;">
<path d="M101598 65583
L101553 65583
" />
<path d="M101576 65583
L101576 65504
L101568 65515
L101561 65522
L101553 65526
" />
<path d="M101647 65504
L101655 65504
L101662 65507
L101666 65511
L101670 65519
L101674 65534
L101674 65553
L101670 65568
L101666 65575
L101662 65579
L101655 65583
L101647 65583
L101640 65579
L101636 65575
L101632 65568
L101629 65553
L101629 65534
L101632 65519
L101636 65511
L101640 65507
L101647 65504
" />
<path d="M101708 65583
L101708 65504
" />
<path d="M101753 65583
L101719 65538
" />
<path d="M101753 65504
L101708 65549
" />
</g>
<g style="fill:#009F9F; fill-opacity:0.0; 
stroke:#009F9F; stroke-width:59.0551; stroke-opacity:1; 
stroke-linecap:round; stroke-linejoin:round;">
<path d="M97168 66832
L97036 66645
" />
<path d="M96943 66832
L96943 66438
L97093 66438
L97130 66457
L97149 66476
L97168 66513
L97168 66570
L97149 66607
L97130 66626
L97093 66645
L96943 66645
" />
<path d="M97543 66832
L97318 66832
" />
<path d="M97430 66832
L97430 66438
L97393 66495
L97355 66532
L97318 66551
" />
<path d="M97918 66832
L97693 66832
" />
<path d="M97805 66832
L97805 66438
L97768 66495
L97730 66532
L97693 66551
" />
</g>
<g style="fill:#009F9F; fill-opacity:0.0; 
stroke:#009F9F; stroke-width:16; stroke-opacity:1; 
stroke-linecap:round; stroke-linejoin:round;">
<path d="M97703 67669
L97658 67669
" />
<path d="M97680 67669
L97680 67590
L97673 67602
L97665 67609
L97658 67613
" />
<path d="M97770 67590
L97755 67590
L97748 67594
L97744 67598
L97737 67609
L97733 67624
L97733 67654
L97737 67662
L97740 67666
L97748 67669
L97763 67669
L97770 67666
L97774 67662
L97778 67654
L97778 67635
L97774 67628
L97770 67624
L97763 67620
L97748 67620
L97740 67624
L97737 67628
L97733 67635
" />
<path d="M97827 67590
L97834 67590
L97842 67594
L97846 67598
L97849 67605
L97853 67620
L97853 67639
L97849 67654
L97846 67662
L97842 67666
L97834 67669
L97827 67669
L97819 67666
L97816 67662
L97812 67654
L97808 67639
L97808 67620
L97812 67605
L97816 67598
L97819 67594
L97827 67590
" />
</g>
<g style="fill:#009F9F; fill-opacity:0.0; 
stroke:#009F9F; stroke-width:59.0551; stroke-opacity:1; 
stroke-linecap:round; stroke-linejoin:round;">
<path d="M94451 65808
L94320 65621
" />
<path d="M94226 65808
L94226 65415
L94376 65415
L94414 65434
L94432 65452
L94451 65490
L94451 65546
L94432 65583
L94414 65602
L94376 65621
L94226 65621
" />
<path d="M94826 65808
L94601 65808
" />
<path d="M94714 65808
L94714 65415
L94676 65471
L94639 65508
L94601 65527
" />
<path d="M94976 65452
L94995 65434
L95032 65415
L95126 65415
L95164 65434
L95182 65452
L95201 65490
L95201 65527
L95182 65583
L94957 65808
L95201 65808
" />
</g>
<g style="fill:#009F9F; fill-opacity:0.0; 
stroke:#009F9F; stroke-width:16; stroke-opacity:1; 
stroke-linecap:round; stroke-linejoin:round;">
<path d="M94984 66646
L94939 66646
" />
<path d="M94962 66646
L94962 66567
L94954 66578
L94947 66585
L94939 66589
" />
<path d="M95033 66567
L95041 66567
L95048 66570
L95052 66574
L95056 66582
L95060 66597
L95060 66616
L95056 66631
L95052 66638
L95048 66642
L95041 66646
L95033 66646
L95026 66642
L95022 66638
L95018 66631
L95014 66616
L95014 66597
L95018 66582
L95022 66574
L95026 66570
L95033 66567
" />
<path d="M95093 66646
L95093 66567
" />
<path d="M95139 66646
L95105 66601
" />
<path d="M95139 66567
L95093 66612
" />
</g>
<g style="fill:#009F9F; fill-opacity:0.0; 
stroke:#009F9F; stroke-width:59.0551; stroke-opacity:1; 
stroke-linecap:round; stroke-linejoin:round;">
<path d="M88083 55474
L87952 55286
" />
<path d="M87859 55474
L87859 55080
L88008 55080
L88046 55099
L88065 55118
L88083 55155
L88083 55211
L88065 55249
L88046 55268
L88008 55286
L87859 55286
" />
<path d="M88458 55474
L88233 55474
" />
<path d="M88346 55474
L88346 55080
L88308 55136
L88271 55174
L88233 55193
" />
</g>
<g style="fill:#009F9F; fill-opacity:0.0; 
stroke:#009F9F; stroke-width:16; stroke-opacity:1; 
stroke-linecap:round; stroke-linejoin:round;">
<path d="M88057 54992
L88012 54992
" />
<path d="M88034 54992
L88034 54913
L88027 54924
L88019 54932
L88012 54936
" />
<path d="M88125 54913
L88110 54913
L88102 54917
L88098 54921
L88091 54932
L88087 54947
L88087 54977
L88091 54985
L88095 54988
L88102 54992
L88117 54992
L88125 54988
L88129 54985
L88132 54977
L88132 54958
L88129 54951
L88125 54947
L88117 54943
L88102 54943
L88095 54947
L88091 54951
L88087 54958
" />
<path d="M88181 54913
L88189 54913
L88196 54917
L88200 54921
L88204 54928
L88208 54943
L88208 54962
L88204 54977
L88200 54985
L88196 54988
L88189 54992
L88181 54992
L88174 54988
L88170 54985
L88166 54977
L88162 54962
L88162 54943
L88166 54928
L88170 54921
L88174 54917
L88181 54913
" />
</g>
<g style="fill:#009F9F; fill-opacity:0.0; 
stroke:#009F9F; stroke-width:59.0551; stroke-opacity:1; 
stroke-linecap:round; stroke-linejoin:round;">
<path d="M89619 55474
L89488 55286
" />
<path d="M89394 55474
L89394 55080
L89544 55080
L89581 55099
L89600 55118
L89619 55155
L89619 55211
L89600 55249
L89581 55268
L89544 55286
L89394 55286
" />
<path d="M89769 55118
L89788 55099
L89825 55080
L89919 55080
L89956 55099
L89975 55118
L89994 55155
L89994 55193
L89975 55249
L89750 55474
L89994 55474
" />
</g>
<g style="fill:#009F9F; fill-opacity:0.0; 
stroke:#009F9F; stroke-width:16; stroke-opacity:1; 
stroke-linecap:round; stroke-linejoin:round;">
<path d="M89473 54992
L89427 54992
" />
<path d="M89450 54992
L89450 54913
L89442 54924
L89435 54932
L89427 54936
" />
<path d="M89521 54913
L89529 54913
L89536 54917
L89540 54921
L89544 54928
L89548 54943
L89548 54962
L89544 54977
L89540 54985
L89536 54988
L89529 54992
L89521 54992
L89514 54988
L89510 54985
L89506 54977
L89503 54962
L89503 54943
L89506 54928
L89510 54921
L89514 54917
L89521 54913
" />
<path d="M89582 54992
L89582 54913
" />
<path d="M89627 54992
L89593 54947
" />
<path d="M89627 54913
L89582 54958
" />
</g>
<g style="fill:#009F9F; fill-opacity:0.0; 
stroke:#009F9F; stroke-width:59.0551; stroke-opacity:1; 
stroke-linecap:round; stroke-linejoin:round;">
<path d="M89887 56439
L89887 56360
" />
<path d="M88706 56833
L89493 56833
" />
<path d="M88706 55966
L89493 55966
" />
<path d="M88312 56439
L88312 56360
" />
</g>
<g style="fill:#009F9F; fill-opacity:0.0; 
stroke:#009F9F; stroke-width:60; stroke-opacity:1; 
stroke-linecap:round; stroke-linejoin:round;">
<path d="M102909 68618
L102909 67618
" />
<path d="M102909 67618
L105909 67618
" />
<path d="M105909 67618
L105909 68618
" />
<path d="M105909 68618
L102909 68618
" />
<path d="M103909 67618
L103909 68618
" />
<path d="M87500 54250
L87500 53250
" />
<path d="M87500 53250
L90500 53250
" />
<path d="M90500 53250
L90500 54250
" />
<path d="M90500 54250
L87500 54250
" />
<path d="M88500 53250
L88500 54250
" />
<path d="M96933 69515
L96933 68515
" />
<path d="M96933 68515
L99933 68515
" />
<path d="M99933 68515
L99933 69515
" />
<path d="M99933 69515
L96933 69515
" />
<path d="M97933 68515
L97933 69515
" />
<path d="M77700 53826
L77700 52826
" />
<path d="M77700 52826
L80700 52826
" />
<path d="M80700 52826
L80700 53826
" />
<path d="M80700 53826
L77700 53826
" />
<path d="M78700 52826
L78700 53826
" />
<path d="M75960 62555
L75960 61555
" />
<path d="M75960 61555
L78960 61555
" />
<path d="M78960 61555
L78960 62555
" />
<path d="M78960 62555
L75960 62555
" />
<path d="M76960 61555
L76960 62555
" />
<path d="M76078 57799
L76078 56799
" />
<path d="M76078 56799
L79078 56799
" />
<path d="M79078 56799
L79078 57799
" />
<path d="M79078 57799
L76078 57799
" />
<path d="M77078 56799
L77078 57799
" />
</g>
<g style="fill:#009F9F; fill-opacity:0.0; 
stroke:#009F9F; stroke-width:59.0551; stroke-opacity:1; 
stroke-linecap:round; stroke-linejoin:round;">
<path d="M82559 62559
L82598 62559
" />
<circle cx="82559.1" cy="62559.1" r="39.3701" /> 
<path d="M83700 62283
L83700 62204
" />
<path d="M82519 62677
L83307 62677
" />
<path d="M82519 61811
L83307 61811
" />
<path d="M82125 62283
L82125 62204
" />
<path d="M82834 58070
L82874 58070
" />
<circle cx="82834.6" cy="58070.9" r="39.3701" /> 
<path d="M83976 57795
L83976 57716
" />
<path d="M82795 58188
L83582 58188
" />
<path d="M82795 57322
L83582 57322
" />
<path d="M82401 57795
L82401 57716
" />
<path d="M82598 54094
L82637 54094
" />
<circle cx="82598.4" cy="54094.5" r="39.3701" /> 
<path d="M83740 53818
L83740 53740
" />
<path d="M82559 54212
L83346 54212
" />
<path d="M82559 53346
L83346 53346
" />
<path d="M82165 53818
L82165 53740
" />
<path d="M103346 65157
L103385 65157
" />
<circle cx="103346" cy="65157.5" r="39.3701" /> 
<path d="M104488 64881
L104488 64803
" />
<path d="M103307 65275
L104094 65275
" />
<path d="M103307 64409
L104094 64409
" />
<path d="M102913 64881
L102913 64803
" />
<path d="M93976 68661
L94015 68661
" />
<circle cx="93976.4" cy="68661.4" r="39.3701" /> 
<path d="M95118 68385
L95118 68307
" />
<path d="M93937 68779
L94724 68779
" />
<path d="M93937 67913
L94724 67913
" />
<path d="M93543 68385
L93543 68307
" />
<path d="M83996 64271
L84114 64271
" />
<path d="M83996 63996
L84114 63996
" />
<path d="M80137 63641
L80255 63641
" />
<path d="M80137 63366
L80255 63366
" />
<path d="M79783 58996
L79901 58996
" />
<path d="M79783 58720
L79901 58720
" />
<path d="M80807 57106
L80925 57106
" />
<path d="M80807 56830
L80925 56830
" />
<path d="M81594 51279
L81712 51279
" />
<path d="M81594 51003
L81712 51003
" />
<path d="M83248 51397
L83366 51397
" />
<path d="M83248 51122
L83366 51122
" />
<path d="M101830 66948
L101948 66948
" />
<path d="M101830 66673
L101948 66673
" />
<path d="M101240 65255
L101358 65255
" />
<path d="M101240 64980
L101358 64980
" />
<path d="M97342 67342
L97460 67342
" />
<path d="M97342 67066
L97460 67066
" />
<path d="M94625 66318
L94744 66318
" />
<path d="M94625 66043
L94744 66043
" />
<path d="M88051 54822
L88169 54822
" />
<path d="M88051 54547
L88169 54547
" />
<path d="M89586 54547
L89468 54547
" />
<path d="M89586 54822
L89468 54822
" />
</g>
<g style="fill:#7F7F00; fill-opacity:0.0; 
stroke:#7F7F00; stroke-width:39.3701; stroke-opacity:1; 
stroke-linecap:round; stroke-linejoin:round;">
</g>
<g style="fill:#7F7F00; fill-opacity:1.0; 
stroke:#7F7F00; stroke-width:39.3701; stroke-opacity:1; 
stroke-linecap:round; stroke-linejoin:round;">
<polyline style="fill-rule:evenodd;"
points="103129,68398
103129,67837
103689,67837
103689,68398
103129,68398
" /> 
<circle cx="104409" cy="68118.1" r="280.315" /> 
<circle cx="105409" cy="68118.1" r="280.315" /> 
<polyline style="fill-rule:evenodd;"
points="87719,54030
87719,53469
88280,53469
88280,54030
87719,54030
" /> 
<circle cx="89000" cy="53750" r="280.315" /> 
<circle cx="90000" cy="53750" r="280.315" /> 
<polyline style="fill-rule:evenodd;"
points="97152,69296
97152,68735
97713,68735
97713,69296
97152,69296
" /> 
<circle cx="98433.1" cy="69015.7" r="280.315" /> 
<circle cx="99433.1" cy="69015.7" r="280.315" /> 
<polyline style="fill-rule:evenodd;"
points="77920,53607
77920,53046
78481,53046
78481,53607
77920,53607
" /> 
<circle cx="79200.8" cy="53326.8" r="280.315" /> 
<circle cx="80200.8" cy="53326.8" r="280.315" /> 
<polyline style="fill-rule:evenodd;"
points="76180,62335
76180,61774
76740,61774
76740,62335
76180,62335
" /> 
<circle cx="77460.6" cy="62055.1" r="280.315" /> 
<circle cx="78460.6" cy="62055.1" r="280.315" /> 
<polyline style="fill-rule:evenodd;"
points="76298,57579
76298,57018
76859,57018
76859,57579
76298,57579
" /> 
<circle cx="77578.7" cy="57299.2" r="280.315" /> 
<circle cx="78578.7" cy="57299.2" r="280.315" /> 
</g> 
</svg>
