<?xml version="1.0" standalone="no"?>
 <!DOCTYPE svg PUBLIC "-//W3C//DTD SVG 1.1//EN" 
 "http://www.w3.org/Graphics/SVG/1.1/DTD/svg11.dtd"> 
<svg xmlns="http://www.w3.org/2000/svg" version="1.1" 
    width="41.9989cm" height="29.7002cm" viewBox="0 0 165350 116930 ">
<title>SVG Picture created as Hyperdrive!_Odd-B_Cu.svg date 2015/07/01 11:57:13 </title>
  <desc>Picture generated by PCBNEW </desc>
<g style="fill:#000000; fill-opacity:1;stroke:#000000; stroke-opacity:1;
stroke-linecap:round; stroke-linejoin:round; "
 transform="translate(0 0) scale(1 1)">
</g>
<g style="fill:#000000; fill-opacity:0.0; 
stroke:#000000; stroke-width:59.0551; stroke-opacity:1; 
stroke-linecap:round; stroke-linejoin:round;">
</g>
<g style="fill:#000000; fill-opacity:1.0; 
stroke:#000000; stroke-width:59.0551; stroke-opacity:1; 
stroke-linecap:round; stroke-linejoin:round;">
<polyline style="fill-rule:evenodd;"
points="103138,68388
103138,67847
103679,67847
103679,68388
103138,68388
" /> 
<circle cx="104409" cy="68118.1" r="270.472" /> 
<circle cx="105409" cy="68118.1" r="270.472" /> 
<polyline style="fill-rule:evenodd;"
points="87729,54020
87729,53479
88270,53479
88270,54020
87729,54020
" /> 
<circle cx="89000" cy="53750" r="270.472" /> 
<circle cx="90000" cy="53750" r="270.472" /> 
<polyline style="fill-rule:evenodd;"
points="97162,69286
97162,68745
97703,68745
97703,69286
97162,69286
" /> 
<circle cx="98433.1" cy="69015.7" r="270.472" /> 
<circle cx="99433.1" cy="69015.7" r="270.472" /> 
<polyline style="fill-rule:evenodd;"
points="77930,53597
77930,53056
78471,53056
78471,53597
77930,53597
" /> 
<circle cx="79200.8" cy="53326.8" r="270.472" /> 
<circle cx="80200.8" cy="53326.8" r="270.472" /> 
<polyline style="fill-rule:evenodd;"
points="76190,62325
76190,61784
76731,61784
76731,62325
76190,62325
" /> 
<circle cx="77460.6" cy="62055.1" r="270.472" /> 
<circle cx="78460.6" cy="62055.1" r="270.472" /> 
<polyline style="fill-rule:evenodd;"
points="76308,57569
76308,57028
76849,57028
76849,57569
76308,57569
" /> 
<circle cx="77578.7" cy="57299.2" r="270.472" /> 
<circle cx="78578.7" cy="57299.2" r="270.472" /> 
</g> 
</svg>
